<?xml version="1.0" encoding="utf-8"?>
<!-- Generator: Adobe Illustrator 27.0.1, SVG Export Plug-In . SVG Version: 6.00 Build 0)  -->
<svg version="1.1" id="レイヤー_1" xmlns="http://www.w3.org/2000/svg" xmlns:xlink="http://www.w3.org/1999/xlink" x="0px"
	 y="0px" viewBox="0 0 48 48" style="enable-background:new 0 0 48 48;" xml:space="preserve">
<path d="M24.5,4c-11.1,0-20,9-20,20c0,8.5,5.3,15.7,12.7,18.6c-0.2-1.6-0.3-4,0.1-5.7c0.4-1.6,2.3-9.9,2.3-9.9S19,25.8,19,24
	c0-2.8,1.6-4.9,3.6-4.9c1.7,0,2.5,1.3,2.5,2.8c0,1.7-1.1,4.3-1.7,6.7c-0.5,2,1,3.6,3,3.6c3.6,0,6.3-3.8,6.3-9.1
	c0-4.8-3.4-8.1-8.4-8.1c-5.7,0-9,4.3-9,8.7c0,1.7,0.7,3.6,1.5,4.6c0.2,0.2,0.2,0.4,0.1,0.6c-0.1,0.6-0.5,2-0.6,2.3
	c-0.1,0.4-0.3,0.4-0.7,0.3c-2.5-1.2-4-4.8-4-7.8c0-6.3,4.6-12.1,13.2-12.1c6.9,0,12.3,4.9,12.3,11.6c0,6.9-4.3,12.4-10.4,12.4
	c-2,0-3.9-1.1-4.6-2.3c0,0-1,3.8-1.3,4.8c-0.4,1.7-1.7,3.9-2.5,5.2c1.9,0.6,3.9,0.9,5.9,0.9c11,0,20-9,20-20C44.5,13,35.5,4,24.5,4z
	"/>
</svg>
