<svg version="1.1" xmlns="http://www.w3.org/2000/svg" viewBox="0 0 48 48">
	<path d="M17.67,37.89c12.88,0,19.93-10.69,19.93-19.96c0-0.3,0-0.61-0.02-0.91c1.37-0.99,2.55-2.22,3.49-3.63
		c-1.28,0.57-2.63,0.94-4.02,1.1c1.46-0.88,2.56-2.26,3.08-3.88c-1.37,0.82-2.88,1.39-4.45,1.7c-2.65-2.83-7.09-2.96-9.91-0.31
		c-1.82,1.71-2.59,4.27-2.03,6.7c-5.63-0.28-10.88-2.95-14.43-7.33c-1.86,3.21-0.91,7.31,2.17,9.37c-1.11-0.03-2.2-0.33-3.18-0.88
		c0,0.03,0,0.06,0,0.09c0,3.34,2.35,6.21,5.62,6.88c-1.03,0.28-2.11,0.32-3.16,0.12c0.92,2.86,3.55,4.82,6.54,4.87
		c-2.48,1.95-5.54,3.01-8.7,3.01c-0.56,0-1.11-0.04-1.67-0.1C10.14,36.8,13.86,37.89,17.67,37.89"/>
</svg>
