<svg version="1.1" xmlns="http://www.w3.org/2000/svg" viewBox="0 0 30 30">
	<path d="M14.8,1.8c-5,0-9,4.1-9,9.1c0,6.8,8.2,16.3,8.5,16.7c0.1,0.1,0.3,0.2,0.5,0.2c0.2,0,0.4-0.1,0.5-0.2
		c0.3-0.4,8.5-9.9,8.5-16.7C23.9,5.9,19.8,1.8,14.8,1.8z M14.8,26.2C13.1,24,7.1,16.3,7.1,11c0-4.3,3.5-7.8,7.7-7.8
		c4.2,0,7.7,3.5,7.7,7.8C22.6,16.3,16.6,24,14.8,26.2z M14.8,7.5c-1.9,0-3.4,1.6-3.4,3.5c0,1.9,1.5,3.5,3.4,3.5
		c1.9,0,3.4-1.6,3.4-3.5C18.3,9,16.7,7.5,14.8,7.5z M14.8,13.1c-1.2,0-2.1-1-2.1-2.2c0-1.2,1-2.2,2.1-2.2c1.2,0,2.1,1,2.1,2.2
		C17,12.2,16,13.1,14.8,13.1z"/>
</svg>
