<?xml version="1.0" encoding="utf-8"?>
<!-- Generator: Adobe Illustrator 26.5.0, SVG Export Plug-In . SVG Version: 6.00 Build 0)  -->
<svg version="1.1" id="レイヤー_1" xmlns="http://www.w3.org/2000/svg" xmlns:xlink="http://www.w3.org/1999/xlink" x="0px"
	 y="0px" viewBox="0 0 48 48" style="enable-background:new 0 0 48 48;" xml:space="preserve">
<g>
	<g>
		<path d="M42.9,11.6c0,0,0-0.1-0.1-0.1c0,0,0-0.1-0.1-0.1l-6-8C36.6,3.1,36.3,3,36,3H12c-0.3,0-0.6,0.1-0.8,0.4l-6,8
			c0,0,0,0.1-0.1,0.1c0,0,0,0.1-0.1,0.1C5,11.8,5,11.9,5,12v28c0,2.8,2.2,5,5,5h28c2.8,0,5-2.2,5-5V12C43,11.9,43,11.8,42.9,11.6z
			 M12.5,5h23l4.5,6H8L12.5,5z M41,40c0,1.7-1.3,3-3,3H10c-1.7,0-3-1.3-3-3V13h34V40z M24,29c5,0,9-4,9-9c0-0.6-0.4-1-1-1
			c-0.6,0-1,0.4-1,1c0,3.9-3.1,7-7,7c-3.9,0-7-3.1-7-7c0-0.6-0.4-1-1-1c-0.6,0-1,0.4-1,1C15,25,19,29,24,29z"/>
	</g>
</g>
</svg>
