<svg version="1.1" xmlns="http://www.w3.org/2000/svg" viewBox="0 0 48 48">
	<path d="M41.74,16.27c-0.09-1.9-0.39-3.2-0.83-4.33c-0.46-1.17-1.07-2.17-2.06-3.16c-0.99-0.99-1.99-1.6-3.16-2.06
		c-1.14-0.44-2.43-0.74-4.33-0.83C29.45,5.8,28.85,5.78,24,5.78c-4.85,0-5.45,0.02-7.36,0.11c-1.9,0.09-3.2,0.39-4.33,0.83
		c-1.17,0.46-2.17,1.07-3.16,2.06c-0.99,0.99-1.6,1.99-2.06,3.16c-0.44,1.14-0.74,2.43-0.83,4.33c-0.09,1.9-0.11,2.51-0.11,7.36
		c0,4.85,0.02,5.45,0.11,7.36c0.09,1.9,0.39,3.2,0.83,4.33c0.46,1.17,1.07,2.17,2.06,3.16c0.99,0.99,1.99,1.6,3.16,2.06
		c1.14,0.44,2.43,0.74,4.33,0.83c1.9,0.09,2.51,0.11,7.36,0.11c4.85,0,5.45-0.02,7.36-0.11c1.9-0.09,3.2-0.39,4.33-0.83
		c1.17-0.46,2.17-1.07,3.16-2.06c0.99-0.99,1.6-1.99,2.06-3.16c0.44-1.14,0.74-2.43,0.83-4.33c0.09-1.9,0.11-2.51,0.11-7.36
		C41.85,18.78,41.83,18.17,41.74,16.27z M38.53,30.84c-0.08,1.74-0.37,2.68-0.61,3.31c-0.32,0.83-0.71,1.43-1.34,2.05
		c-0.62,0.62-1.22,1.01-2.05,1.34c-0.63,0.24-1.57,0.53-3.31,0.61c-1.88,0.08-2.45,0.1-7.21,0.1c-4.77,0-5.33-0.02-7.21-0.1
		c-1.74-0.08-2.68-0.37-3.31-0.61c-0.83-0.32-1.43-0.71-2.05-1.34c-0.62-0.62-1.01-1.22-1.34-2.05c-0.24-0.63-0.54-1.57-0.61-3.31
		c-0.09-1.88-0.1-2.45-0.1-7.21c0-4.77,0.02-5.33,0.1-7.21c0.08-1.74,0.37-2.68,0.61-3.31c0.32-0.83,0.71-1.43,1.33-2.05
		c0.62-0.62,1.22-1.01,2.05-1.33c0.63-0.24,1.57-0.54,3.31-0.61c1.88-0.09,2.45-0.1,7.21-0.1c4.77,0,5.33,0.02,7.21,0.1
		c1.74,0.08,2.69,0.37,3.31,0.61c0.83,0.32,1.43,0.71,2.05,1.33c0.62,0.63,1.01,1.22,1.34,2.05c0.24,0.63,0.54,1.57,0.61,3.31
		c0.09,1.88,0.1,2.45,0.1,7.21C38.63,28.39,38.61,28.95,38.53,30.84z M24,14.46c-5.06,0-9.16,4.1-9.16,9.16
		c0,5.06,4.1,9.16,9.16,9.16c5.06,0,9.16-4.1,9.16-9.16C33.16,18.56,29.06,14.46,24,14.46z M24,29.57c-3.29,0-5.95-2.66-5.95-5.95
		c0-3.28,2.66-5.95,5.95-5.95c3.29,0,5.95,2.66,5.95,5.95C29.95,26.91,27.29,29.57,24,29.57z M33.53,11.96
		c-1.18,0-2.14,0.96-2.14,2.14c0,1.18,0.96,2.14,2.14,2.14c1.18,0,2.14-0.96,2.14-2.14C35.67,12.91,34.71,11.96,33.53,11.96z"/>
</svg>
